<?xml version="1.0" standalone="no"?>
<svg version="1.1" xmlns="http://www.w3.org/2000/svg"
 width="512" height="512" viewBox="0 0 512 512"
 preserveAspectRatio="xMidYMid meet">

<defs>
  <clipPath id="circleClip">
    <circle cx="256" cy="256" r="256"/>
  </clipPath>
</defs>

<g clip-path="url(#circleClip)">
  <circle cx="256" cy="256" r="256" fill="#FFFFFF"/>
  <g transform="translate(0,512) scale(0.1,-0.1)" fill="#000000" stroke="none">
    <path d="M0 2560 l0 -2560 2560 0 2560 0 0 885 0 885 -22 5 c-379 83 -1261
    181 -1873 206 -282 12 -1245 6 -1392 -7 -35 -4 -63 -2 -63 2 1 13 240 162 270
    168 14 3 151 10 305 16 639 23 1309 -32 1940 -160 250 -51 692 -167 820 -217
    13 -4 15 206 15 1666 l0 1671 -2560 0 -2560 0 0 -2560z m4781 2193 c59 -62 97
    -119 152 -229 35 -69 107 -251 107 -269 0 -14 -211 -85 -375 -126 -153 -38
    -276 -84 -440 -163 -303 -148 -508 -336 -612 -562 -14 -31 -34 -59 -47 -64
    -137 -57 -262 -113 -361 -163 -433 -215 -858 -533 -1195 -892 -83 -89 -73 -68
    39 80 355 471 868 912 1489 1279 72 44 132 80 132 82 0 14 -305 -143 -465
    -239 -626 -375 -1161 -926 -1454 -1497 -10 -18 -47 -23 -326 -45 -388 -30
    -913 -96 -1250 -155 -187 -33 -174 -32 -145 -19 42 19 245 77 465 134 352 91
    729 159 1113 203 l153 17 40 105 c218 581 674 1109 1351 1564 l145 98 56 111
    c178 356 531 586 1002 652 118 17 231 56 315 110 30 19 57 35 60 35 3 0 26
    -21 51 -47z"/>
    <path d="M3786 4165 c-21 -7 -55 -27 -75 -43 -38 -30 -105 -122 -115 -158 -8
    -27 13 -34 114 -34 87 0 153 26 208 81 38 37 96 145 87 159 -9 15 -175 11
    -219 -5z"/>
    <path d="M3191 3708 c-39 -33 -70 -63 -68 -65 6 -5 165 86 173 99 6 9 -12 27
    -28 28 -4 0 -38 -28 -77 -62z"/>
  </g>
</g>
<circle cx="256" cy="256" r="255" fill="none" stroke="#000000" stroke-width="2"/>
</svg>
